<svg class="w-6 h-6" width="24" height="24" viewBox="0 0 24 24" fill="none" xmlns="http://www.w3.org/2000/svg"><path d="M21 12C21 7.02944 16.9706 3 12 3C7.02944 3 3 7.02944 3 12C3 16.9706 7.02944 21 12 21C16.9706 21 21 16.9706 21 12ZM23 12C23 18.0751 18.0751 23 12 23C5.92487 23 1 18.0751 1 12C1 5.92487 5.92487 1 12 1C18.0751 1 23 5.92487 23 12Z" fill="#686583" style="fill-opacity:1;"/><path d="M14 10C14 8.89543 13.1046 8 12 8C10.8954 8 10 8.89543 10 10C10 11.1046 10.8954 12 12 12C13.1046 12 14 11.1046 14 10ZM16 10C16 12.2091 14.2091 14 12 14C9.79086 14 8 12.2091 8 10C8 7.79086 9.79086 6 12 6C14.2091 6 16 7.79086 16 10Z" fill="#686583" style="fill-opacity:1;"/><path d="M16 20.6621V19C16 18.7348 15.8946 18.4805 15.707 18.293C15.5195 18.1054 15.2652 18 15 18H9C8.73478 18 8.48051 18.1054 8.29297 18.293C8.10543 18.4805 8 18.7348 8 19V20.6621C7.99994 21.2143 7.55225 21.6621 7 21.6621C6.44775 21.6621 6.00006 21.2143 6 20.6621V19C6 18.2044 6.3163 17.4415 6.87891 16.8789C7.44152 16.3163 8.20435 16 9 16H15C15.7957 16 16.5585 16.3163 17.1211 16.8789C17.6837 17.4415 18 18.2043 18 19V20.6621C17.9999 21.2143 17.5522 21.6621 17 21.6621C16.4478 21.6621 16.0001 21.2143 16 20.6621Z" fill="#686583" style="fill-opacity:1;"/></svg>